<svg version="1.1" id="Layer_1" xmlns="http://www.w3.org/2000/svg" xmlns:xlink="http://www.w3.org/1999/xlink" x="0px" y="0px"
	 width="100%" viewBox="0 0 1024 1024" enable-background="new 0 0 1024 1024" xml:space="preserve">
<path fill="#000000" opacity="1.000000" stroke="none" 
	d="
M598.671448,419.259918 
	C620.862732,434.968170 633.229309,455.935272 634.116943,482.887726 
	C634.423706,492.202545 635.720398,500.680176 639.909424,509.243225 
	C650.011841,529.894165 645.604309,553.676453 629.731384,570.167542 
	C629.053711,570.871582 628.479065,571.674805 627.577881,572.770569 
	C634.617126,579.782654 640.873169,587.310608 646.321655,595.467407 
	C661.838196,618.697266 671.814758,643.967590 674.432129,671.956238 
	C675.284973,681.076172 676.353943,690.190674 673.929382,699.221313 
	C671.953857,706.579529 668.139343,707.946350 662.011353,703.637024 
	C658.647766,701.271606 654.938904,702.190002 651.409668,702.758545 
	C642.550049,704.185669 633.527954,705.574768 624.721558,705.773315 
	C612.077332,706.058350 599.645447,708.522766 587.022888,708.295532 
	C585.529907,708.268677 583.612549,708.779602 582.615784,708.050964 
	C577.147583,704.053711 571.559448,706.339966 565.885437,707.105713 
	C550.171692,709.226196 534.317261,708.802124 518.521423,709.491455 
	C491.511139,710.670166 464.587860,709.509155 437.718079,706.982422 
	C421.501068,705.457458 405.123810,706.997620 388.967743,703.594177 
	C382.273132,702.183838 376.684265,699.468872 371.393677,695.563354 
	C369.696747,694.310608 369.790253,692.354065 369.735779,690.544128 
	C368.646057,654.323853 378.425964,621.490112 400.234985,592.363586 
	C403.521851,587.973877 406.447479,583.310547 409.474884,578.730591 
	C412.151520,574.681335 412.567505,570.374390 410.629120,565.889648 
	C406.075043,555.353088 400.969391,545.017761 397.051361,534.250061 
	C383.043793,495.754059 395.305389,448.868164 429.174652,425.266693 
	C445.238159,414.073029 463.413330,408.419006 482.592987,405.699310 
	C491.134033,404.488159 499.617218,402.735046 508.290985,402.574219 
	C510.073730,402.541199 511.339630,401.313538 512.699158,400.385559 
	C520.331116,395.176453 528.580566,391.287933 537.457458,388.736786 
	C539.729614,388.083771 542.137756,387.405334 543.919800,389.636932 
	C545.512390,391.631287 545.474854,393.998474 544.547852,396.282349 
	C543.498657,398.867279 542.298767,401.391022 540.885925,404.567474 
	C561.133118,406.134491 581.110718,407.443115 598.671448,419.259918 
z"/>
</svg>